<?xml version="1.0" standalone="no"?>
<!DOCTYPE svg PUBLIC "-//W3C//DTD SVG 20010904//EN"
 "http://www.w3.org/TR/2001/REC-SVG-20010904/DTD/svg10.dtd">
<svg version="1.0" xmlns="http://www.w3.org/2000/svg"
 width="192.000000pt" height="192.000000pt" viewBox="0 0 192.000000 192.000000"
 preserveAspectRatio="xMidYMid meet">
<metadata>
Created by potrace 1.11, written by Peter Selinger 2001-2013
</metadata>
<g transform="translate(0.000000,192.000000) scale(0.100000,-0.100000)"
fill="#000000" stroke="none">
<path d="M0 960 l0 -960 213 0 c140 0 217 4 224 11 8 8 13 8 17 0 4 -6 18 -11
32 -11 14 0 23 4 19 9 -3 5 -1 12 5 16 5 3 10 11 10 18 0 8 -3 8 -11 0 -9 -9
-15 -9 -24 0 -9 9 -7 15 9 30 12 10 15 16 8 12 -6 -3 -12 -2 -12 4 0 5 6 12
12 15 7 4 3 4 -10 2 -12 -2 -29 2 -37 10 -15 15 -10 44 7 44 5 0 2 7 -6 16
-18 17 -22 64 -6 64 6 0 10 -5 10 -10 0 -6 6 -10 13 -9 6 1 21 1 32 0 17 -1
18 -3 5 -11 -13 -9 -13 -10 0 -10 8 0 42 -44 75 -100 l60 -99 402 -1 402 0 -2
23 c0 12 -6 26 -12 30 -6 5 -1 7 13 4 12 -3 22 0 22 5 0 16 -39 79 -69 111
-25 27 -25 28 -10 90 7 34 14 95 13 135 -1 72 -1 72 20 55 16 -14 18 -15 8 -2
-10 14 -10 18 3 23 9 3 26 1 37 -5 21 -11 52 -74 43 -88 -7 -13 38 -101 53
-101 6 0 12 -5 12 -11 0 -5 -4 -8 -9 -4 -5 3 -12 -4 -16 -15 -3 -11 -13 -20
-22 -20 -12 0 -13 -3 -3 -15 6 -8 9 -19 5 -26 -5 -8 -1 -9 15 -4 19 6 22 4 17
-9 -4 -9 -2 -16 3 -16 5 0 5 -13 0 -30 -7 -25 -6 -30 8 -31 10 0 12 -3 5 -5
-9 -4 -9 -13 -2 -31 19 -51 -1 -35 -27 21 -14 31 -30 53 -35 50 -6 -4 -5 -14
4 -27 43 -70 56 -95 50 -100 -3 -4 73 -7 170 -7 l177 0 0 960 0 960 -960 0
-960 0 0 -960z m1232 825 c13 -4 33 -19 45 -34 20 -24 20 -27 5 -45 -18 -21
-18 -21 37 2 9 3 12 1 7 -6 -4 -7 -2 -12 6 -12 10 0 10 -2 -1 -9 -10 -6 -5
-11 19 -16 24 -5 29 -10 19 -16 -11 -7 -10 -9 5 -9 13 0 17 -5 13 -20 -3 -11
-1 -20 5 -20 15 0 35 -24 30 -38 -2 -6 1 -12 7 -12 9 0 36 -78 31 -89 -1 -2 2
-7 8 -10 12 -8 25 -74 12 -66 -6 3 -10 0 -11 -7 -1 -13 -3 -28 -10 -58 -2 -8
-8 -18 -14 -22 -6 -5 -6 -8 1 -8 7 0 14 -7 17 -14 7 -18 -17 -11 -52 16 -13
10 -26 16 -28 14 -11 -11 11 -48 34 -57 20 -7 23 -13 15 -21 -8 -8 -15 -8 -27
2 -13 11 -19 11 -33 -4 -15 -15 -15 -18 -2 -26 9 -6 19 -5 24 0 17 17 42 11
43 -10 1 -11 -2 -20 -8 -20 -5 0 -8 -3 -8 -7 3 -19 -2 -33 -12 -33 -20 0 -37
-26 -28 -43 7 -11 4 -20 -8 -29 -25 -18 -26 -48 -2 -48 11 0 19 6 19 13 0 18
36 51 44 39 8 -14 -5 -52 -16 -46 -6 4 -8 -2 -4 -14 6 -18 3 -20 -28 -18 -33
3 -34 2 -21 -18 7 -12 13 -38 13 -58 1 -30 -2 -36 -14 -31 -11 4 -15 0 -12
-13 3 -22 33 -48 65 -58 14 -4 20 -12 16 -21 -4 -11 -10 -12 -23 -5 -10 6 -21
10 -24 10 -10 0 1 -52 13 -60 9 -5 6 -9 -9 -13 -15 -4 -19 -10 -14 -19 6 -11
5 -11 -9 0 -12 10 -21 11 -34 3 -17 -10 -17 -10 0 -11 9 0 17 -5 17 -11 0 -6
7 -9 15 -5 17 6 18 4 9 -18 -3 -9 -14 -16 -23 -16 -11 0 -7 -6 12 -18 28 -17
35 -32 16 -32 -5 0 -7 -4 -4 -10 3 -5 -9 -3 -28 5 -23 9 -37 11 -48 3 -11 -8
-11 -9 3 -4 11 3 28 -5 45 -21 l28 -25 -28 17 c-16 9 -31 15 -33 12 -8 -8 31
-67 44 -67 6 0 12 -8 12 -19 0 -14 -7 -18 -27 -18 -16 0 -22 2 -15 4 10 4 10
8 2 19 -10 11 -15 10 -33 -6 -16 -15 -23 -17 -29 -8 -6 10 -8 9 -8 -2 -1 -12
-3 -12 -14 3 -7 9 -17 17 -22 17 -4 0 -20 11 -34 25 -19 18 -27 21 -27 11 0
-8 4 -13 8 -10 4 2 10 0 13 -5 4 -5 -6 -8 -21 -6 -16 2 -36 -1 -45 -6 -14 -7
-16 -6 -12 6 4 8 2 15 -3 15 -5 0 -10 7 -10 15 0 8 4 12 9 9 4 -3 8 0 8 6 0 7
7 10 14 7 11 -4 13 -1 9 11 -4 9 -11 20 -17 24 -7 5 -7 8 2 8 6 0 12 9 12 21
0 15 5 19 16 15 8 -3 12 -2 9 4 -3 6 0 10 7 10 10 0 10 2 -1 9 -9 6 -12 22 -9
50 2 22 0 41 -4 41 -5 0 -8 7 -8 15 0 16 -39 77 -52 83 -5 2 -8 8 -8 12 0 5
-13 23 -29 40 l-28 32 -19 -24 c-23 -28 -99 -34 -99 -8 0 8 9 15 20 15 28 0
25 27 -2 31 -21 4 -28 -5 -24 -28 0 -5 -3 -8 -8 -8 -5 0 -7 -10 -3 -22 3 -14
2 -19 -6 -14 -7 4 -12 1 -12 -9 0 -9 -11 -27 -25 -40 -13 -14 -22 -25 -18 -25
3 0 -2 -12 -12 -26 -21 -32 -19 -177 3 -169 8 3 11 -3 8 -19 -5 -26 24 -62 39
-49 4 5 5 2 0 -6 -4 -7 -4 -16 1 -20 5 -3 -1 -16 -13 -28 -13 -12 -23 -18 -23
-12 0 6 -4 7 -10 4 -5 -3 -10 -2 -10 4 0 5 5 13 10 16 6 3 10 11 10 17 0 15
-38 -20 -45 -41 -3 -9 -16 -24 -29 -33 -23 -17 -24 -17 -19 5 3 12 11 29 17
37 6 8 -2 4 -18 -8 -16 -12 -34 -22 -40 -22 -7 0 -6 3 2 8 13 9 6 42 -9 42 -4
0 -6 -7 -3 -15 4 -8 1 -15 -6 -15 -6 0 -8 5 -5 10 3 6 -2 10 -12 11 -10 0 -13
3 -6 5 7 3 9 12 6 20 -4 12 -8 12 -21 2 -13 -11 -14 -10 -8 10 8 25 1 28 -19
8 -10 -10 -11 -16 -2 -25 14 -14 -1 -15 -37 -1 -21 8 -24 7 -19 -8 8 -21 35
-42 46 -35 5 3 11 -4 14 -16 3 -11 9 -19 13 -16 9 5 23 -11 26 -30 1 -5 5 -18
9 -28 5 -11 2 -17 -6 -17 -11 0 -11 -2 0 -9 8 -5 16 -17 17 -27 2 -9 8 -20 13
-24 18 -10 25 -110 9 -110 -11 0 -10 -2 1 -9 19 -12 -4 -24 -26 -13 -10 5 -33
7 -50 5 -38 -6 -42 6 -13 32 30 27 24 40 -6 16 -28 -22 -64 -28 -64 -10 0 5 4
7 10 4 16 -10 52 15 46 31 -3 9 -1 12 4 9 13 -8 13 8 -1 22 -6 6 -12 17 -13
24 -8 42 -31 106 -43 119 -12 13 -13 12 -7 -5 6 -16 4 -18 -6 -8 -11 10 -11
20 -1 52 6 22 10 46 9 53 -2 8 7 13 26 13 16 0 31 6 34 14 3 8 0 11 -7 7 -7
-5 -9 -1 -5 8 3 9 10 14 14 11 4 -3 11 2 14 11 3 8 11 12 16 9 6 -4 19 -3 28
1 14 6 11 8 -13 14 -19 4 -38 1 -52 -8 -19 -11 -21 -11 -19 2 3 23 11 27 46
28 20 1 27 4 18 9 -7 5 -22 6 -32 3 -15 -5 -18 -2 -13 15 3 12 1 19 -4 15 -5
-3 -9 -12 -9 -20 0 -8 -5 -14 -11 -14 -5 0 -7 4 -4 10 3 5 1 10 -6 10 -24 0
13 30 40 31 l26 2 -28 4 c-17 3 -25 9 -21 16 4 7 -4 2 -18 -10 -13 -13 -28
-23 -34 -23 -5 0 2 9 16 20 14 10 21 22 17 27 -5 4 -12 1 -16 -6 -5 -8 -14
-10 -21 -6 -8 5 -11 4 -6 -3 3 -6 2 -13 -3 -16 -5 -3 -11 0 -14 8 -5 12 12 27
33 30 16 3 58 45 52 51 -4 5 1 6 10 2 18 -6 62 26 50 37 -4 4 -2 7 3 6 22 -5
45 0 45 10 0 5 -8 6 -17 3 -10 -4 1 10 22 30 22 20 50 47 63 59 12 13 22 18
22 13 0 -6 7 4 16 21 12 25 20 31 36 26 12 -3 19 -1 15 4 -3 5 10 9 30 8 26
-2 33 1 29 12 -8 20 11 17 23 -3 14 -25 26 -8 26 37 0 31 -3 38 -17 37 -12 -1
-14 -5 -8 -11 14 -14 13 -23 -3 -23 -8 0 -13 15 -13 45 0 24 2 39 4 33 7 -21
19 -1 15 24 -3 13 -9 22 -14 19 -5 -3 -9 2 -9 10 0 9 5 16 10 16 7 0 7 6 0 19
-6 13 -7 28 -1 44 7 18 6 30 -4 43 -11 16 -11 23 -1 39 15 24 21 135 7 135 -5
0 -11 -8 -13 -17 -2 -12 -6 -9 -16 12 -11 25 -11 27 2 16 8 -7 17 -8 20 -2 9
14 -4 41 -21 41 -12 0 -13 3 -4 14 10 11 8 18 -9 34 -11 10 -24 37 -27 58 -7
42 -13 51 -57 79 -26 17 -27 20 -10 32 9 7 38 12 63 12 25 0 56 2 69 5 12 3
22 0 22 -6 0 -7 4 -7 13 0 7 6 35 13 62 16 46 5 83 12 95 16 3 2 16 3 30 4 15
1 24 6 22 15 -1 7 3 20 9 28 11 12 15 11 26 -11 7 -13 23 -28 35 -31z m-895
-365 c-17 -28 -29 -25 -15 5 6 13 15 22 19 19 5 -3 3 -14 -4 -24z m535 -48
c-3 -8 1 -20 9 -26 8 -6 15 -24 16 -41 1 -28 1 -29 -9 -7 -13 26 -34 30 -23 5
13 -29 18 -80 7 -65 -7 11 -10 11 -15 -2 -4 -9 -2 -16 3 -16 6 0 10 -4 10 -10
0 -5 -7 -7 -15 -4 -8 4 -15 1 -15 -6 0 -6 -5 -8 -11 -4 -8 5 -8 9 1 14 7 4 9
13 5 20 -5 9 -4 11 3 6 17 -10 27 43 13 65 -15 25 -14 29 5 29 10 0 14 5 10
15 -3 8 -8 21 -11 28 -3 8 1 14 9 14 8 0 12 -6 8 -15z m38 -12 c-18 -11 -24
-6 -16 16 5 14 9 15 19 5 9 -9 9 -14 -3 -21z m-630 -63 c-26 -58 -34 -61 -15
-6 17 46 25 62 31 56 2 -2 -5 -25 -16 -50z m556 -34 c-10 -10 -19 5 -10 18 6
11 8 11 12 0 2 -7 1 -15 -2 -18z m794 -34 c0 -6 -4 -7 -10 -4 -5 3 -10 11 -10
16 0 6 5 7 10 4 6 -3 10 -11 10 -16z m-733 -26 c-3 -10 -5 -4 -5 12 0 17 2 24
5 18 2 -7 2 -21 0 -30z m-237 -98 c0 -2 -3 -11 -6 -19 -6 -15 -8 -15 -19 0
-11 16 -14 15 -30 -9 -9 -15 -22 -24 -28 -20 -13 8 36 48 63 50 11 1 20 0 20
-2z m801 -32 c13 -17 13 -17 -6 -3 -11 8 -22 16 -24 17 -2 2 0 3 6 3 6 0 17
-8 24 -17z m-915 -12 c-4 -5 -3 -11 1 -14 5 -2 2 -2 -4 -1 -7 2 -13 -2 -13 -8
0 -6 -3 -8 -6 -5 -4 4 -1 13 6 22 14 16 25 21 16 6z m128 -24 c-3 -9 -13 -17
-21 -17 -8 0 -12 -3 -10 -7 3 -5 -5 -9 -17 -9 -21 -2 -20 0 9 30 30 32 51 33
39 3z m816 -8 c0 -5 -4 -9 -10 -9 -5 0 -10 7 -10 16 0 8 5 12 10 9 6 -3 10
-10 10 -16z m-543 -14 c0 -8 -4 -12 -9 -9 -4 3 -8 9 -8 15 0 5 4 9 8 9 5 0 9
-7 9 -15z m467 -53 c3 -5 -1 -9 -9 -9 -8 0 -12 4 -9 9 3 4 7 8 9 8 2 0 6 -4 9
-8z m-788 -30 c-17 -16 -18 -16 -5 5 7 12 15 20 18 17 3 -2 -3 -12 -13 -22z
m-101 -27 c0 -11 5 -24 10 -28 6 -5 4 -7 -5 -4 -8 2 -14 10 -12 17 1 7 -5 19
-15 27 -17 13 -17 14 2 11 12 -2 20 -11 20 -23z m62 -10 c0 -8 -4 -12 -9 -9
-4 3 -8 9 -8 15 0 5 4 9 8 9 5 0 9 -7 9 -15z m-42 -64 c3 -5 1 -12 -5 -16 -5
-3 -10 1 -10 9 0 18 6 21 15 7z m45 -31 c8 -5 11 -10 5 -10 -5 0 -17 5 -25 10
-8 5 -10 10 -5 10 6 0 17 -5 25 -10z m-30 -25 c0 -8 -2 -15 -4 -15 -2 0 -6 7
-10 15 -3 8 -1 15 4 15 6 0 10 -7 10 -15z m913 -22 c-7 -2 -19 -2 -25 0 -7 3
-2 5 12 5 14 0 19 -2 13 -5z m-28 -23 c3 -6 -1 -7 -9 -4 -18 7 -21 14 -7 14 6
0 13 -4 16 -10z m35 -82 c0 -6 3 -8 6 -5 11 11 195 -145 192 -162 -1 -3 6 -23
16 -44 9 -21 14 -42 10 -48 -3 -5 -2 -18 2 -27 14 -32 15 -57 4 -97 -6 -22
-12 -58 -14 -80 -2 -22 -12 -55 -21 -73 -9 -18 -14 -39 -11 -47 3 -8 1 -15 -5
-15 -6 0 -8 -9 -4 -22 5 -16 4 -20 -3 -13 -6 6 -13 27 -16 49 -4 21 -9 43 -12
48 -3 5 1 19 8 31 41 64 63 169 44 206 -8 14 -22 47 -31 73 -17 50 -59 90
-153 148 -35 21 -51 37 -48 47 3 7 -1 16 -9 19 -18 7 -20 31 -2 37 16 6 47
-11 47 -25z m-948 -81 c-5 -7 -10 -32 -11 -57 -1 -33 -9 -52 -27 -70 l-26 -25
14 35 c8 19 14 49 13 65 0 17 4 33 10 38 6 4 5 11 -5 17 -13 8 -13 10 1 10 9
0 20 8 24 18 8 16 8 16 12 -1 3 -10 1 -23 -5 -30z m1227 -86 c12 -8 12 -12 2
-24 -9 -12 -9 -17 0 -23 9 -5 7 -9 -7 -14 -23 -9 -37 9 -22 28 9 10 6 14 -10
19 -12 3 -19 9 -16 14 7 12 35 11 53 0z m-442 -73 c-3 -8 -6 -5 -6 6 -1 11 2
17 5 13 3 -3 4 -12 1 -19z m-313 -3 c3 -9 -1 -18 -9 -21 -8 -4 -15 -16 -16
-28 0 -20 -1 -20 -9 -1 -13 31 -12 45 5 39 11 -5 13 -2 9 10 -3 9 -2 16 4 16
5 0 13 -7 16 -15z m46 -15 c0 -6 -5 -10 -11 -10 -5 0 -8 -3 -5 -8 2 -4 -1 -15
-8 -23 -9 -14 -11 -9 -11 26 0 38 2 42 18 34 9 -6 17 -14 17 -19z m-109 -17
c-10 -17 -10 -16 -11 3 0 23 13 41 18 25 2 -6 -1 -18 -7 -28z m248 8 c-3 -8
-11 -7 -24 4 -19 14 -19 15 -1 8 15 -5 17 -3 11 8 -6 11 -5 11 5 2 7 -6 11
-16 9 -22z m-709 -21 c-5 -9 -2 -31 6 -55 18 -52 18 -52 -8 -50 -14 1 -23 8
-23 18 0 8 -4 19 -7 23 -4 4 0 13 10 21 9 8 11 12 5 8 -16 -8 -16 3 -2 44 8
23 14 29 20 20 4 -7 4 -20 -1 -29z m640 -19 c0 -15 -24 -18 -45 -7 -22 12 -26
34 -10 52 7 8 16 5 32 -13 13 -13 23 -28 23 -32z m20 28 c0 -6 -4 -7 -10 -4
-5 3 -10 11 -10 16 0 6 5 7 10 4 6 -3 10 -11 10 -16z m-264 -26 c-8 -15 -15
-22 -16 -15 0 14 22 53 28 47 2 -2 -3 -16 -12 -32z m665 15 c11 -21 11 -22 -4
-9 -10 7 -17 17 -17 22 0 15 9 10 21 -13z m-628 -3 c4 -8 2 -17 -3 -20 -6 -4
-10 3 -10 14 0 25 6 27 13 6z m-398 -5 c3 -5 1 -10 -4 -10 -6 0 -11 5 -11 10
0 6 2 10 4 10 3 0 8 -4 11 -10z m770 -3 c17 -13 16 -14 -5 -12 -13 1 -26 7
-28 13 -5 16 10 15 33 -1z m-830 -307 c3 -5 2 -10 -4 -10 -5 0 -13 5 -16 10
-3 6 -2 10 4 10 5 0 13 -4 16 -10z"/>
<path d="M1320 1630 c-8 -5 -10 -10 -5 -10 6 0 17 5 25 10 8 5 11 10 5 10 -5
0 -17 -5 -25 -10z"/>
<path d="M1286 1409 c-14 -11 -26 -18 -26 -16 0 3 -13 -7 -30 -21 -16 -15 -30
-34 -30 -44 0 -9 -5 -20 -12 -24 -7 -5 -8 -3 -3 6 5 8 4 11 -3 6 -6 -4 -9 -13
-6 -20 3 -7 -2 -19 -11 -26 -8 -7 -15 -17 -15 -23 0 -5 -8 -16 -17 -24 -10 -8
-12 -11 -4 -7 11 5 13 2 9 -14 -4 -12 -3 -22 1 -22 12 0 41 35 41 48 0 9 5 9
19 0 26 -16 96 5 111 32 6 11 17 20 26 20 12 0 13 4 4 21 -14 24 -86 59 -109
52 -11 -3 -10 -1 2 7 24 15 104 4 115 -16 4 -8 18 -16 31 -19 19 -3 21 -2 11
10 -15 18 -5 35 21 35 10 0 19 5 19 11 0 7 -18 9 -51 6 -46 -5 -49 -4 -32 10
17 13 15 14 -17 9 -32 -6 -33 -5 -15 8 11 9 15 16 9 16 -6 0 -23 -9 -38 -21z"/>
<path d="M1425 1340 c3 -5 8 -10 11 -10 2 0 4 5 4 10 0 6 -5 10 -11 10 -5 0
-7 -4 -4 -10z"/>
<path d="M1350 1186 c0 -2 7 -7 16 -10 8 -3 12 -2 9 4 -6 10 -25 14 -25 6z"/>
<path d="M960 934 c0 -8 5 -12 10 -9 6 4 8 11 5 16 -9 14 -15 11 -15 -7z"/>
<path d="M590 354 c0 -8 4 -12 10 -9 6 3 7 -1 4 -10 -5 -13 -2 -15 22 -9 34 8
43 14 22 14 -9 0 -21 7 -28 15 -16 19 -30 19 -30 -1z"/>
<path d="M1449 455 c6 -11 20 -31 31 -45 15 -17 18 -19 11 -5 -6 11 -20 31
-31 45 -15 17 -18 19 -11 5z"/>
<path d="M1490 351 c0 -6 4 -13 10 -16 6 -3 7 1 4 9 -7 18 -14 21 -14 7z"/>
<path d="M1521 305 c0 -5 6 -21 14 -35 8 -14 14 -20 14 -15 0 6 -6 21 -14 35
-8 14 -14 21 -14 15z"/>
<path d="M1485 190 c6 -8 10 -18 10 -22 0 -14 15 -20 15 -6 0 9 -8 22 -17 29
-15 12 -16 12 -8 -1z"/>
<path d="M510 149 c0 -5 5 -7 10 -4 6 3 10 8 10 11 0 2 -4 4 -10 4 -5 0 -10
-5 -10 -11z"/>
</g>
</svg>
