<svg aria-hidden="true" style="position: absolute; width: 0; height: 0; overflow: hidden;" version="1.1" xmlns="http://www.w3.org/2000/svg" xmlns:xlink="http://www.w3.org/1999/xlink">
<defs>
<symbol id="icon-chevron-forward-circle-outline" viewBox="0 0 32 32">
<path d="M16 29c-7.169 0-13-5.831-13-13s5.831-13 13-13 13 5.831 13 13-5.831 13-13 13zM16 5c-6.063 0-11 4.938-11 11s4.938 11 11 11 11-4.938 11-11-4.938-11-11-11z"></path>
<path d="M13.5 23c-0.256 0-0.512-0.1-0.706-0.294-0.387-0.387-0.387-1.025 0-1.413l5.294-5.294-5.294-5.294c-0.387-0.387-0.387-1.025 0-1.412s1.025-0.387 1.412 0l6 6c0.387 0.387 0.387 1.025 0 1.412l-6 6c-0.194 0.194-0.45 0.294-0.706 0.294z"></path>
</symbol>
<symbol id="icon-close-circle-outline" viewBox="0 0 32 32">
<path d="M16 29c-7.169 0-13-5.831-13-13s5.831-13 13-13 13 5.831 13 13-5.831 13-13 13zM16 5c-6.063 0-11 4.938-11 11s4.938 11 11 11 11-4.938 11-11-4.938-11-11-11z"></path>
<path d="M20 21c-0.256 0-0.512-0.1-0.706-0.294l-3.294-3.294-3.294 3.294c-0.387 0.387-1.025 0.387-1.412 0s-0.387-1.025 0-1.413l3.294-3.294-3.294-3.294c-0.387-0.387-0.387-1.025 0-1.412s1.025-0.387 1.412 0l3.294 3.294 3.294-3.294c0.387-0.387 1.025-0.387 1.413 0s0.387 1.025 0 1.412l-3.294 3.294 3.294 3.294c0.387 0.387 0.387 1.025 0 1.413-0.194 0.194-0.45 0.294-0.706 0.294z"></path>
</symbol>
<symbol id="icon-logo-facebook" viewBox="0 0 32 32">
<path d="M30 16.084c0-7.731-6.269-14-14-14s-14 6.269-14 14c0 6.988 5.119 12.779 11.813 13.831v-9.782h-3.556v-4.048h3.556v-3.084c0-3.508 2.091-5.447 5.288-5.447 1.532 0 3.134 0.274 3.134 0.274v3.446h-1.766c-1.738 0-2.282 1.079-2.282 2.188v2.625h3.883l-0.62 4.048h-3.262v9.784c6.694-1.051 11.813-6.843 11.813-13.832z"></path>
</symbol>
<symbol id="icon-logo-instagram" viewBox="0 0 32 32">
<path d="M21.833 4.333c3.218 0.010 5.824 2.616 5.834 5.833v11.667c-0.010 3.218-2.616 5.824-5.833 5.834h-11.667c-3.218-0.010-5.824-2.616-5.834-5.833v-11.667c0.010-3.218 2.616-5.824 5.833-5.834h11.667zM21.833 2h-11.666c-4.492 0-8.167 3.675-8.167 8.167v11.666c0 4.492 3.675 8.167 8.167 8.167h11.666c4.492 0 8.167-3.675 8.167-8.167v-11.666c0-4.492-3.675-8.167-8.167-8.167z"></path>
<path d="M23.583 10.167c-0.966 0-1.75-0.784-1.75-1.75s0.784-1.75 1.75-1.75c0.966 0 1.75 0.784 1.75 1.75v0c0 0.001 0 0.002 0 0.004 0 0.964-0.782 1.746-1.746 1.746-0.001 0-0.003 0-0.004 0h0zM16 11.333c2.577 0 4.667 2.089 4.667 4.667s-2.089 4.667-4.667 4.667c-2.577 0-4.667-2.089-4.667-4.667v0c0.003-2.576 2.091-4.664 4.667-4.667h0zM16 9c-3.866 0-7 3.134-7 7s3.134 7 7 7c3.866 0 7-3.134 7-7v0c0-3.866-3.134-7-7-7v0z"></path>
</symbol>
<symbol id="icon-logo-youtube" viewBox="0 0 32 32">
<path d="M31.79 9.299c0-2.813-2.069-5.075-4.625-5.075-3.462-0.162-6.994-0.224-10.602-0.224h-1.125c-3.6 0-7.137 0.063-10.6 0.225-2.55 0-4.619 2.275-4.619 5.088-0.156 2.224-0.223 4.449-0.219 6.674q-0.009 3.337 0.212 6.681c0 2.813 2.069 5.094 4.619 5.094 3.637 0.169 7.369 0.244 11.162 0.238q5.7 0.019 11.162-0.238c2.556 0 4.625-2.281 4.625-5.094 0.15-2.231 0.219-4.456 0.212-6.688q0.021-3.338-0.204-6.681zM12.938 22.118v-12.281l9.063 6.137z"></path>
</symbol>
<symbol id="icon-chevron-back-circle-outline" viewBox="0 0 32 32">
<path d="M16 29c-7.169 0-13-5.831-13-13s5.831-13 13-13 13 5.831 13 13-5.831 13-13 13zM16 5c-6.063 0-11 4.938-11 11s4.938 11 11 11 11-4.938 11-11-4.938-11-11-11z"></path>
<path d="M18.5 23c-0.256 0-0.512-0.1-0.706-0.294l-6-6c-0.387-0.387-0.387-1.025 0-1.412l6-6c0.387-0.387 1.025-0.387 1.413 0s0.387 1.025 0 1.412l-5.294 5.294 5.294 5.294c0.387 0.387 0.387 1.025 0 1.413-0.194 0.194-0.45 0.294-0.706 0.294z"></path>
</symbol>
<symbol id="icon-expand-outline" viewBox="0 0 32 32">
<path d="M27 28h-7c-0.55 0-1-0.45-1-1s0.45-1 1-1h4.587l-6.294-6.294c-0.387-0.387-0.394-1.025 0-1.413 0.387-0.387 1.025-0.387 1.413 0l6.294 6.287v-4.581c0-0.55 0.45-1 1-1s1 0.45 1 1v7c0 0.55-0.45 1-1 1zM12 28h-7c-0.55 0-1-0.45-1-1v-7c0-0.55 0.45-1 1-1s1 0.45 1 1v4.587l6.294-6.294c0.387-0.387 1.025-0.387 1.412 0s0.394 1.025 0 1.413l-6.287 6.294h4.581c0.55 0 1 0.45 1 1s-0.45 1-1 1zM19 14c-0.256 0-0.512-0.1-0.706-0.294-0.387-0.387-0.394-1.025 0-1.412l6.287-6.294h-4.581c-0.55 0-1-0.45-1-1s0.45-1 1-1h7c0.55 0 1 0.45 1 1v7c0 0.55-0.45 1-1 1s-1-0.45-1-1v-4.588l-6.294 6.294c-0.194 0.194-0.45 0.294-0.706 0.294zM13 14c-0.256 0-0.512-0.1-0.706-0.294l-6.294-6.287v4.581c0 0.55-0.45 1-1 1s-1-0.45-1-1v-7c0-0.55 0.45-1 1-1h7c0.55 0 1 0.45 1 1s-0.45 1-1 1h-4.588l6.294 6.294c0.387 0.387 0.394 1.025 0 1.412-0.194 0.194-0.45 0.294-0.706 0.294z"></path>
</symbol>
</defs>
</svg>
