<!-- Generated by IcoMoon.io -->
<svg version="1.1" xmlns="http://www.w3.org/2000/svg" width="32" height="32" viewBox="0 0 32 32">
<title>back<title>
<path d="M16 29c-7.169 0-13-5.831-13-13s5.831-13 13-13 13 5.831 13 13-5.831 13-13 13zM16 5c-6.063 0-11 4.938-11 11s4.938 11 11 11 11-4.938 11-11-4.938-11-11-11z"></path>
<path d="M18.5 23c-0.256 0-0.512-0.1-0.706-0.294l-6-6c-0.387-0.387-0.387-1.025 0-1.412l6-6c0.387-0.387 1.025-0.387 1.413 0s0.387 1.025 0 1.412l-5.294 5.294 5.294 5.294c0.387 0.387 0.387 1.025 0 1.413-0.194 0.194-0.45 0.294-0.706 0.294z"></path>
</svg>
