<!-- Generated by IcoMoon.io -->
<svg version="1.1" xmlns="http://www.w3.org/2000/svg" width="32" height="32" viewBox="0 0 32 32">
<title>expand-outline</title>
<path d="M27 28h-7c-0.55 0-1-0.45-1-1s0.45-1 1-1h4.587l-6.294-6.294c-0.387-0.387-0.394-1.025 0-1.413 0.387-0.387 1.025-0.387 1.413 0l6.294 6.287v-4.581c0-0.55 0.45-1 1-1s1 0.45 1 1v7c0 0.55-0.45 1-1 1zM12 28h-7c-0.55 0-1-0.45-1-1v-7c0-0.55 0.45-1 1-1s1 0.45 1 1v4.587l6.294-6.294c0.387-0.387 1.025-0.387 1.412 0s0.394 1.025 0 1.413l-6.287 6.294h4.581c0.55 0 1 0.45 1 1s-0.45 1-1 1zM19 14c-0.256 0-0.512-0.1-0.706-0.294-0.387-0.387-0.394-1.025 0-1.412l6.287-6.294h-4.581c-0.55 0-1-0.45-1-1s0.45-1 1-1h7c0.55 0 1 0.45 1 1v7c0 0.55-0.45 1-1 1s-1-0.45-1-1v-4.588l-6.294 6.294c-0.194 0.194-0.45 0.294-0.706 0.294zM13 14c-0.256 0-0.512-0.1-0.706-0.294l-6.294-6.287v4.581c0 0.55-0.45 1-1 1s-1-0.45-1-1v-7c0-0.55 0.45-1 1-1h7c0.55 0 1 0.45 1 1s-0.45 1-1 1h-4.588l6.294 6.294c0.387 0.387 0.394 1.025 0 1.412-0.194 0.194-0.45 0.294-0.706 0.294z"></path>
</svg>
